<?xml version="1.0" encoding="UTF-8"?>
<svg version="1.1" xmlns="http://www.w3.org/2000/svg" width="500" height="500">
<path d="M0 0 C14.53292804 13.46456144 28.67604816 27.22083659 39.890625 43.640625 C40.3635498 44.32785645 40.83647461 45.01508789 41.32373047 45.72314453 C44.65597915 50.61006543 47.82190892 55.58450601 50.890625 60.640625 C51.52629395 61.68524902 51.52629395 61.68524902 52.17480469 62.75097656 C85.36727168 118.0377375 93.68044351 185.94847677 78.578125 248.1796875 C68.0934708 289.38343265 47.3815842 326.99927762 17.890625 357.640625 C17.28943848 358.26904297 16.68825195 358.89746094 16.06884766 359.54492188 C7.23215581 368.73525933 -1.82001417 377.1110417 -12.109375 384.640625 C-12.68929199 385.07068848 -13.26920898 385.50075195 -13.86669922 385.94384766 C-22.005261 391.96750593 -30.34071468 397.56298211 -39.109375 402.640625 C-39.70991699 402.98947754 -40.31045898 403.33833008 -40.92919922 403.69775391 C-96.18719972 435.40596496 -163.82304495 442.4605676 -225.109375 426.640625 C-254.1268746 418.65040868 -280.69678 406.30584999 -305.109375 388.640625 C-306.28619692 387.80952555 -307.4632535 386.97875821 -308.640625 386.1484375 C-314.95939711 381.57221337 -320.70434264 376.51831841 -326.37890625 371.18359375 C-328.55586539 369.15612537 -330.76215824 367.22966075 -333.046875 365.328125 C-378.35508665 325.73024581 -403.50606429 263.13298991 -407.89550781 204.17822266 C-411.0171878 152.54221461 -399.17835627 100.42246076 -371.109375 56.640625 C-370.09423828 55.03380859 -370.09423828 55.03380859 -369.05859375 53.39453125 C-356.16951327 33.53139921 -340.35800451 14.77589036 -322.109375 -0.359375 C-321.62082031 -0.7723584 -321.13226563 -1.1853418 -320.62890625 -1.61083984 C-297.17482314 -21.36714441 -270.17636383 -36.58302203 -241.109375 -46.359375 C-240.30790039 -46.63330078 -239.50642578 -46.90722656 -238.68066406 -47.18945312 C-158.56324107 -74.16611076 -63.33925047 -57.04654403 0 0 Z M-225.109375 37.640625 C-225.80546875 38.32511719 -226.5015625 39.00960937 -227.21875 39.71484375 C-235.9633774 48.88314496 -241.94885947 60.75794049 -246.109375 72.640625 C-246.58890625 74.00574219 -246.58890625 74.00574219 -247.078125 75.3984375 C-253.30322566 97.01337036 -249.44489439 121.98017034 -239.109375 141.640625 C-226.20451569 162.87277088 -207.78039913 178.04121562 -183.65234375 184.859375 C-158.67374324 190.36733542 -135.30004196 186.56533526 -113.421875 173.328125 C-107.81136793 169.61493019 -102.89988229 165.35336432 -98.109375 160.640625 C-97.3359375 159.88007813 -96.5625 159.11953125 -95.765625 158.3359375 C-79.20449855 141.03750063 -72.37157091 118.15491608 -72.86328125 94.640625 C-73.78898878 70.36037581 -85.15016224 48.88064484 -102.546875 32.3203125 C-139.44593979 1.36879434 -191.38095117 3.97116694 -225.109375 37.640625 Z M-279.109375 259.640625 C-280.20628919 260.5425699 -281.30400315 261.44354266 -282.40234375 262.34375 C-294.26701384 272.16695805 -304.42412676 282.89374597 -313.109375 295.640625 C-307.03929101 305.94379388 -298.51781211 314.24624882 -290.109375 322.640625 C-289.55636719 323.24003906 -289.00335938 323.83945312 -288.43359375 324.45703125 C-262.76411621 351.84189153 -221.79452916 369.04161151 -185.109375 373.640625 C-184.24570313 373.75148438 -183.38203125 373.86234375 -182.4921875 373.9765625 C-144.09408821 378.00129245 -104.86314937 370.39566107 -71.109375 351.640625 C-70.47451172 351.28887207 -69.83964844 350.93711914 -69.18554688 350.57470703 C-55.0273858 342.62770693 -42.80813562 332.84571859 -31.109375 321.640625 C-30.60519043 321.16367187 -30.10100586 320.68671875 -29.58154297 320.1953125 C-21.91476454 312.91540103 -15.33560703 305.18103177 -9.109375 296.640625 C-15.17718601 286.34131421 -23.69627243 278.02573056 -32.109375 269.640625 C-32.6971875 269.01800781 -33.285 268.39539063 -33.890625 267.75390625 C-44.09385537 257.06370352 -56.44351839 249.09076124 -69.109375 241.640625 C-69.71475098 241.28226562 -70.32012695 240.92390625 -70.94384766 240.5546875 C-89.35349462 229.8009876 -109.33112474 223.91905391 -130.109375 219.640625 C-131.38425781 219.3725 -132.65914062 219.104375 -133.97265625 218.828125 C-184.30277511 210.31163015 -240.48308147 226.72117111 -279.109375 259.640625 Z " fill="#FFFEEB" transform="translate(411.109375,62.359375)"/>
</svg>
