<?xml version="1.0" encoding="UTF-8"?>
<svg version="1.1" xmlns="http://www.w3.org/2000/svg" width="500" height="500">
<path d="M0 0 C21.78 0 43.56 0 66 0 C66 25 66 25 62 31 C60.49620751 35.94103247 61.01775553 40.28731095 63 45 C65.58378933 48.12774497 68.08538359 50.76969199 72 52 C77.62151717 52.45334816 81.16100802 52.18933562 86 49 C90.38618021 44.25818356 91.28783245 40.55902023 91.2265625 34.2890625 C90.8033799 30.01345895 88.985667 26.985667 86 24 C86 16.08 86 8.16 86 0 C127.91 0 169.82 0 213 0 C213 24 213 24 209 30 C207.323806 35.02858199 207.39357265 39.34030411 209.1875 44.25 C211.81438033 48.23561154 214.46941592 50.48980531 219 52 C225.43581151 52.53631763 228.74533474 51.81220813 234 48 C237.03943083 44.25136865 237.75680833 40.7827695 238 36 C237.36951673 31.31024087 236.44146932 28.44146932 233 25 C233 16.75 233 8.5 233 0 C256.1 0 279.2 0 303 0 C304.31636664 9.87274977 305.52715082 19.68217943 306.45535278 29.58850098 C306.58883164 30.99066343 306.72255989 32.39280216 306.85651195 33.79491949 C307.2194052 37.60100703 307.57877809 41.40741953 307.93750691 45.21390152 C308.32668133 49.3367062 308.71918343 53.45919433 309.11123657 57.58172607 C309.87675501 65.63703426 310.6391821 73.69263209 311.40045418 81.74834257 C312.01917238 88.29502482 312.63898956 94.84160215 313.2595787 101.3881073 C313.34811928 102.32212599 313.43665986 103.25614468 313.52788349 104.21846697 C313.7077824 106.11619003 313.88768334 108.0139129 314.06758629 109.91163558 C315.75094764 127.67019291 317.43073437 145.42908699 319.10932563 163.18809575 C320.54926281 178.4212505 321.99246442 193.65409316 323.43798828 208.88671875 C325.11863299 226.59700423 326.79712601 244.30749156 328.47228611 262.01829672 C328.65087168 263.90633774 328.82946058 265.79437844 329.00805283 267.68241882 C329.09591438 268.61127829 329.18377593 269.54013776 329.27429996 270.49714449 C329.89324686 277.03892981 330.51374716 283.58056671 331.13486099 290.12214661 C331.89127136 298.08905094 332.64535989 306.05617092 333.39645971 314.02357775 C333.77962275 318.08739273 334.16383722 322.15110096 334.55090332 326.2145462 C334.90523328 329.93463466 335.25652449 333.65499715 335.60540496 337.37560052 C335.79200923 339.35722419 335.98183781 341.33854342 336.17178452 343.31984949 C336.28201978 344.50192405 336.39225504 345.68399861 336.50583076 346.90189362 C336.60195502 347.91786826 336.69807928 348.9338429 336.7971164 349.98060465 C337.02106999 353.3135721 337 356.65951692 337 360 C214.24 360 91.48 360 -35 360 C-34.37622862 349.3958865 -33.69266799 338.89115141 -32.63366699 328.33630371 C-32.49711261 326.95039079 -32.36085428 325.56444868 -32.22486067 324.17848063 C-31.85580152 320.42583797 -31.48261958 316.6736158 -31.10867476 312.92145729 C-30.70402831 308.85362252 -30.30332658 304.78539883 -29.90211487 300.71722412 C-29.11793043 292.77197327 -28.33020861 284.82707703 -27.54129422 276.8822946 C-26.62168559 267.61975462 -25.70583126 258.35684455 -24.79016322 249.09391433 C-23.15624558 232.56624992 -21.51925056 216.03889182 -19.88037109 199.51171875 C-18.29159602 183.48976719 -16.70454654 167.46764611 -15.11962891 151.4453125 C-15.02188618 150.4572109 -14.92414345 149.46910931 -14.82343882 148.45106524 C-14.43050707 144.47878572 -14.03758197 140.50650554 -13.644667 136.53422436 C-11.94901158 119.39188937 -10.25210439 102.24967825 -8.55488133 85.10749841 C-8.28061557 82.3373421 -8.00636872 79.56718392 -7.73212242 76.79702568 C-6.69085192 66.27963067 -5.64891502 55.76230199 -4.60606194 45.24506378 C-4.29018209 42.05921489 -3.97454604 38.87334201 -3.65913582 35.68744659 C-3.29568059 32.01636782 -2.93171627 28.34533988 -2.56734902 24.67435151 C-2.37392528 22.72436799 -2.18101809 20.77433325 -1.988132 18.82429647 C-1.8718056 17.6534068 -1.75547919 16.48251712 -1.63562775 15.27614594 C-1.48664119 13.77317593 -1.48664119 13.77317593 -1.33464479 12.23984289 C-0.91297072 8.15743144 -0.45322546 4.07902917 0 0 Z M78.328125 120.4765625 C68.91148224 130.68319206 64.6624665 142.53501012 64.84765625 156.30078125 C65.95626256 175.94301103 75.09917216 193.56969258 88 208 C88.70898438 208.82886719 89.41796875 209.65773438 90.1484375 210.51171875 C104.04316968 226.48815268 120.31069146 238.10393433 138.75 248.3125 C140.30412598 249.18527588 140.30412598 249.18527588 141.88964844 250.07568359 C142.8696582 250.60371582 143.84966797 251.13174805 144.859375 251.67578125 C145.73045898 252.14927002 146.60154297 252.62275879 147.49902344 253.1105957 C151.17315032 254.417199 153.54909172 253.60418651 157.05786133 252.14306641 C159.31570549 250.9813292 161.57014068 249.81646458 163.8125 248.625 C164.65055176 248.18019287 165.48860352 247.73538574 166.35205078 247.27709961 C197.19366599 230.57292614 225.97980595 204.97562002 236.4375 170.625 C239.72548216 157.01759331 239.42614752 142.96825977 232.609375 130.4453125 C231.17160492 128.19785085 229.64542147 126.09904644 228 124 C227.30583984 123.06220703 227.30583984 123.06220703 226.59765625 122.10546875 C219.43228833 112.9949317 209.71433483 108.61687453 198.4375 107.0625 C186.29771834 106.33473248 174.35149448 110.29071918 165 118 C157.931128 124.54259388 153.70856114 131.51167986 152 141 C151.72027344 140.16597656 151.44054687 139.33195312 151.15234375 138.47265625 C146.88351779 126.48974608 141.32597827 118.21154079 130 112 C111.29057551 103.96422891 93.29244807 106.31221897 78.328125 120.4765625 Z " fill="#FFFEEB" transform="translate(99,127)"/>
<path d="M0 0 C17.24897924 13.68966606 28.98153038 31.32470005 31.84570312 53.46484375 C32.35349757 60.21594769 32.24542111 66.99254355 32.20898438 73.7578125 C32.20846458 75.68117777 32.2089869 77.60454358 32.210495 79.52790833 C32.21040595 83.52755829 32.20010622 87.52700382 32.18188477 91.52661133 C32.15903002 96.65570823 32.15869115 101.78451173 32.16540241 106.91364574 C32.16873728 110.87096272 32.16212421 114.8282125 32.15227318 118.78551674 C32.14842522 120.67818158 32.14727129 122.57085388 32.14885902 124.46352196 C32.14922884 127.09586364 32.1366387 129.72782308 32.12036133 132.36010742 C32.12283875 133.14084122 32.12531616 133.92157501 32.12786865 134.72596741 C32.09042765 138.50939768 31.99703041 140.23785283 29.84570312 143.46484375 C27.14324623 143.88060635 25.55946409 143.9061303 23.20860291 142.45269775 C21.05460884 139.31099519 21.44080673 135.96152519 21.47680664 132.28417969 C21.47115692 131.03219284 21.47115692 131.03219284 21.46539307 129.75491333 C21.45895248 127.93958408 21.45929822 126.12422111 21.46557808 124.3088913 C21.47469319 121.42267986 21.46445473 118.53711769 21.44895935 115.65093994 C21.40890315 107.44373633 21.40763817 99.23658198 21.40991211 91.02929688 C21.40996365 86.00711939 21.39056694 80.98528621 21.36057854 75.96320343 C21.34987183 73.14334143 21.36182077 70.32417213 21.37440491 67.5043335 C21.33399855 47.17505205 16.31487446 30.46662262 1.84570312 15.46484375 C-12.01709286 3.2686134 -27.35747226 -2.11452721 -45.71679688 -1.91015625 C-46.76287109 -1.92175781 -47.80894531 -1.93335938 -48.88671875 -1.9453125 C-59.11732356 -1.90720969 -68.1224103 0.45681059 -77.21679688 5.08984375 C-78.23966797 5.60925537 -78.23966797 5.60925537 -79.28320312 6.13916016 C-85.43824707 9.39591281 -90.39677097 13.3644331 -95.15429688 18.46484375 C-95.85941406 19.20089844 -96.56453125 19.93695313 -97.29101562 20.6953125 C-101.54149773 25.52871787 -104.42655639 30.62766952 -107.02929688 36.46484375 C-107.31571045 37.10494385 -107.60212402 37.74504395 -107.8972168 38.40454102 C-112.4044832 49.15013523 -112.45712797 59.88888666 -112.48982239 71.3572979 C-112.49818252 74.19447288 -112.51874652 77.03133684 -112.5423584 79.86842346 C-112.59846843 86.90401598 -112.63406998 93.93968334 -112.66998291 100.97540283 C-112.70120035 106.94434423 -112.74033183 112.91312934 -112.79023743 118.88194466 C-112.81030885 121.67778218 -112.81862141 124.47349939 -112.82653809 127.26939392 C-112.8395042 128.97574306 -112.85302358 130.68208812 -112.8671875 132.38842773 C-112.86571465 133.55492859 -112.86571465 133.55492859 -112.86421204 134.74499512 C-112.90800779 138.52094614 -113.00702451 140.24393521 -115.15429688 143.46484375 C-117.87315388 143.88312944 -119.44540184 143.91722815 -121.79118347 142.42025757 C-123.88288288 139.41967235 -123.56326777 136.3306449 -123.52661133 132.80322266 C-123.53026199 132.0238736 -123.53391266 131.24452454 -123.53767395 130.44155884 C-123.5457953 127.85795451 -123.5321442 125.27497494 -123.51757812 122.69140625 C-123.51705918 120.88837688 -123.5175782 119.08534693 -123.51908875 117.28231812 C-123.51899892 113.49427896 -123.5085577 109.70645211 -123.49047852 105.91845703 C-123.46795337 101.09605657 -123.46721665 96.27397076 -123.47399616 91.45153236 C-123.47736456 87.72111285 -123.47064985 83.9907631 -123.46086693 80.2603569 C-123.4570516 78.4848098 -123.45585126 76.70925486 -123.45745277 74.93370438 C-123.46145566 48.35658581 -117.4988684 27.22774101 -99.15429688 7.46484375 C-98.4453125 6.69914062 -97.73632812 5.9334375 -97.00585938 5.14453125 C-72.73090187 -18.57238126 -26.83532918 -19.6811881 0 0 Z " fill="#FFFEEB" transform="translate(296.154296875,25.53515625)"/>
</svg>
