<?xml version="1.0" encoding="UTF-8"?>
<svg version="1.1" xmlns="http://www.w3.org/2000/svg" width="500" height="500">
<path d="M0 0 C1.10788435 0.9922477 2.21464262 1.98575404 3.3203125 2.98046875 C4.1851123 3.75269775 4.1851123 3.75269775 5.06738281 4.54052734 C11.56396766 10.3579074 17.75002967 16.25477791 23.3203125 22.98046875 C24.13757813 23.90988281 24.95484375 24.83929688 25.796875 25.796875 C36.88441128 38.45501321 45.96122839 52.40696236 54.3203125 66.98046875 C54.97515625 68.10066406 55.63 69.22085938 56.3046875 70.375 C76.74168425 106.79372821 85.80872018 148.7461375 85.6328125 190.23046875 C85.63007828 191.57742828 85.63007828 191.57742828 85.62728882 192.95159912 C85.58103012 206.51549255 84.98465626 219.64826042 82.3203125 232.98046875 C82.15402344 233.88216797 81.98773438 234.78386719 81.81640625 235.71289062 C77.6519602 258.1854754 70.37794729 279.47434667 60.3203125 299.98046875 C59.99595215 300.64304687 59.6715918 301.305625 59.33740234 301.98828125 C50.69342331 319.3926264 39.9661468 335.25487622 27.3203125 349.98046875 C26.66417969 350.75519531 26.00804687 351.52992188 25.33203125 352.328125 C23.68838108 354.23852508 22.01207641 356.11255589 20.3203125 357.98046875 C19.46824219 358.93566406 18.61617188 359.89085937 17.73828125 360.875 C12.56410061 366.63813363 7.28016248 372.02281179 1.3203125 376.98046875 C0.42441406 377.77582031 -0.47148437 378.57117188 -1.39453125 379.390625 C-53.16713809 425.07529654 -121.05013137 443.03294141 -188.94622803 438.84051514 C-229.21155207 435.85313644 -270.38980536 420.73115828 -303.6796875 397.98046875 C-304.27249512 397.58150391 -304.86530273 397.18253906 -305.47607422 396.77148438 C-314.7765291 390.48171309 -323.287318 383.42514607 -331.6796875 375.98046875 C-332.61039062 375.16191406 -333.54109375 374.34335937 -334.5 373.5 C-343.41632849 365.57891919 -351.25064431 357.31501328 -358.6796875 347.98046875 C-359.54320864 346.93011543 -360.40782185 345.88065912 -361.2734375 344.83203125 C-393.75662182 305.07341482 -414.48093726 252.19075407 -414.91796875 200.63671875 C-414.93265953 199.198125 -414.93265953 199.198125 -414.94764709 197.73046875 C-415.11177161 177.50689747 -415.2568545 157.79064126 -410.6796875 137.98046875 C-410.46006348 137.00368164 -410.24043945 136.02689453 -410.01416016 135.02050781 C-408.46227627 128.27041697 -406.67086185 121.61368177 -404.6796875 114.98046875 C-404.42880371 114.14386719 -404.17791992 113.30726563 -403.91943359 112.4453125 C-393.46404725 78.50396827 -374.81221634 46.92532189 -350.6796875 20.98046875 C-349.50846602 19.63023962 -348.34161517 18.27620384 -347.1796875 16.91796875 C-340.01957374 8.73967367 -332.16887537 1.74738973 -323.6796875 -5.01953125 C-322.95910156 -5.63054688 -322.23851562 -6.2415625 -321.49609375 -6.87109375 C-241.69709912 -73.72586643 -123.03608977 -78.47739902 0 0 Z M-134.61435032 73.79208374 C-135.89610346 75.07521957 -135.89610346 75.07521957 -137.20375061 76.38427734 C-137.67829711 76.85796942 -138.15284361 77.33166149 -138.6417703 77.81970787 C-140.2441216 79.42040147 -141.84285383 81.02466268 -143.44165039 82.62890625 C-144.58442583 83.77196352 -145.72742104 84.91480111 -146.87062073 86.05743408 C-149.98427618 89.17080141 -153.09482853 92.28725277 -156.20485616 95.40424347 C-159.45155963 98.65717814 -162.70107592 101.90730038 -165.95030212 105.15771484 C-172.1075673 111.31809403 -178.26227791 117.48101897 -184.41608757 123.64484978 C-191.42005925 130.65998043 -198.42685459 137.67228784 -205.43389523 144.68435287 C-219.85231607 159.11323968 -234.26716552 173.54568992 -248.6796875 187.98046875 C-247.13561318 191.6531868 -244.91775251 193.9890808 -242.11129761 196.78936768 C-241.41044688 197.49278168 -241.41044688 197.49278168 -240.69543755 198.21040606 C-239.13093485 199.77819912 -237.55939854 201.33874366 -235.98779297 202.89941406 C-234.86392996 204.02271286 -233.74050729 205.14645238 -232.61749268 206.27059937 C-229.56845172 209.32021444 -226.51328096 212.36362115 -223.45698309 215.40596104 C-220.26365915 218.58678762 -217.07599314 221.77327391 -213.88772583 224.95916748 C-207.84982738 230.99084825 -201.80684849 237.01741238 -195.76203358 243.04216075 C-188.88030557 249.90153877 -182.0042516 256.76659256 -175.12867141 263.63213205 C-160.98532026 277.75457466 -146.83484888 291.86986442 -132.6796875 305.98046875 C-127.36570546 301.49963391 -127.36570546 301.49963391 -122.31469727 296.72900391 C-121.75464493 296.16887604 -121.19459259 295.60874817 -120.61756897 295.03164673 C-119.75306374 294.15939957 -119.75306374 294.15939957 -118.87109375 293.26953125 C-118.25950912 292.65653168 -117.6479245 292.0435321 -117.01780701 291.41195679 C-115.09021191 289.47882311 -113.16614822 287.54221888 -111.2421875 285.60546875 C-109.92536346 284.28362176 -108.60830824 282.96200503 -107.29101562 281.640625 C-104.08456377 278.42322576 -100.88127121 275.20271194 -97.6796875 271.98046875 C-101.98286362 266.83797868 -106.4931258 262.02836805 -111.24560547 257.30102539 C-112.3441964 256.20221542 -112.3441964 256.20221542 -113.46498108 255.08120728 C-115.86491407 252.681966 -118.26836005 250.28627746 -120.671875 247.890625 C-122.3450368 246.21933002 -124.01797665 244.54781283 -125.69070435 242.87608337 C-130.07786689 238.49272524 -134.46802507 234.1123795 -138.85882568 229.73266602 C-143.345206 225.25654457 -147.82873042 220.77756449 -152.3125 216.29882812 C-161.09877849 207.52325032 -169.8882261 198.75085404 -178.6796875 189.98046875 C-177.32013493 186.94181927 -175.79278622 184.84558938 -173.44003296 182.50030518 C-172.77256546 181.83008835 -172.10509796 181.15987152 -171.41740417 180.46934509 C-170.32012749 179.38285423 -170.32012749 179.38285423 -169.20068359 178.27441406 C-168.42985947 177.50329788 -167.65903534 176.7321817 -166.86485291 175.93769836 C-164.3156555 173.38989437 -161.75944678 170.84924784 -159.203125 168.30859375 C-157.43434854 166.54354737 -155.66601311 164.77805893 -153.89810181 163.012146 C-149.71921922 158.84011965 -145.53590656 154.67257027 -141.35042441 150.50716758 C-136.11709115 145.29839618 -130.89067007 140.08270609 -125.6640625 134.8671875 C-116.34147483 125.56605062 -107.01275804 116.27108613 -97.6796875 106.98046875 C-102.15833586 101.67198599 -102.15833586 101.67198599 -106.9152832 96.61547852 C-107.47218338 96.05542618 -108.02908356 95.49537384 -108.6028595 94.91835022 C-109.18122055 94.3420134 -109.7595816 93.76567657 -110.35546875 93.171875 C-110.96609665 92.56029037 -111.57672455 91.94870575 -112.20585632 91.31858826 C-113.48277135 90.04099836 -114.76092743 88.76464772 -116.0402832 87.48950195 C-118.00785316 85.52734619 -119.96995482 83.55983355 -121.93164062 81.59179688 C-123.17676233 80.34733499 -124.42219366 79.10318281 -125.66796875 77.859375 C-126.25645096 77.26886856 -126.84493317 76.67836212 -127.45124817 76.06996155 C-130.78807676 71.80864752 -130.78807676 71.80864752 -134.61435032 73.79208374 Z " fill="#FFFEEB" transform="translate(414.6796875,61.01953125)"/>
</svg>
