<?xml version="1.0" encoding="UTF-8"?>
<svg version="1.1" xmlns="http://www.w3.org/2000/svg" width="500" height="500">
<path d="M0 0 C1.10788435 0.9922477 2.21464262 1.98575404 3.3203125 2.98046875 C4.1851123 3.75269775 4.1851123 3.75269775 5.06738281 4.54052734 C11.56396766 10.3579074 17.75002967 16.25477791 23.3203125 22.98046875 C24.13757813 23.90988281 24.95484375 24.83929688 25.796875 25.796875 C36.88441128 38.45501321 45.96122839 52.40696236 54.3203125 66.98046875 C54.97515625 68.10066406 55.63 69.22085938 56.3046875 70.375 C76.74168425 106.79372821 85.80872018 148.7461375 85.6328125 190.23046875 C85.63007828 191.57742828 85.63007828 191.57742828 85.62728882 192.95159912 C85.58103012 206.51549255 84.98465626 219.64826042 82.3203125 232.98046875 C82.15402344 233.88216797 81.98773438 234.78386719 81.81640625 235.71289062 C77.6519602 258.1854754 70.37794729 279.47434667 60.3203125 299.98046875 C59.99595215 300.64304687 59.6715918 301.305625 59.33740234 301.98828125 C50.69342331 319.3926264 39.9661468 335.25487622 27.3203125 349.98046875 C26.66417969 350.75519531 26.00804687 351.52992188 25.33203125 352.328125 C23.68838108 354.23852508 22.01207641 356.11255589 20.3203125 357.98046875 C19.46824219 358.93566406 18.61617188 359.89085937 17.73828125 360.875 C12.56410061 366.63813363 7.28016248 372.02281179 1.3203125 376.98046875 C0.42441406 377.77582031 -0.47148437 378.57117188 -1.39453125 379.390625 C-53.16713809 425.07529654 -121.05013137 443.03294141 -188.94622803 438.84051514 C-229.21155207 435.85313644 -270.38980536 420.73115828 -303.6796875 397.98046875 C-304.27249512 397.58150391 -304.86530273 397.18253906 -305.47607422 396.77148438 C-314.7765291 390.48171309 -323.287318 383.42514607 -331.6796875 375.98046875 C-332.61039062 375.16191406 -333.54109375 374.34335937 -334.5 373.5 C-343.41632849 365.57891919 -351.25064431 357.31501328 -358.6796875 347.98046875 C-359.54320864 346.93011543 -360.40782185 345.88065912 -361.2734375 344.83203125 C-393.75662182 305.07341482 -414.48093726 252.19075407 -414.91796875 200.63671875 C-414.93265953 199.198125 -414.93265953 199.198125 -414.94764709 197.73046875 C-415.11177161 177.50689747 -415.2568545 157.79064126 -410.6796875 137.98046875 C-410.46006348 137.00368164 -410.24043945 136.02689453 -410.01416016 135.02050781 C-408.46227627 128.27041697 -406.67086185 121.61368177 -404.6796875 114.98046875 C-404.42880371 114.14386719 -404.17791992 113.30726563 -403.91943359 112.4453125 C-393.46404725 78.50396827 -374.81221634 46.92532189 -350.6796875 20.98046875 C-349.50846602 19.63023962 -348.34161517 18.27620384 -347.1796875 16.91796875 C-340.01957374 8.73967367 -332.16887537 1.74738973 -323.6796875 -5.01953125 C-322.95910156 -5.63054688 -322.23851562 -6.2415625 -321.49609375 -6.87109375 C-241.69709912 -73.72586643 -123.03608977 -78.47739902 0 0 Z M-199.0907135 73.27124023 C-199.69249924 73.87524658 -200.29428497 74.47925293 -200.91430664 75.1015625 C-201.93525169 76.12262085 -201.93525169 76.12262085 -202.9768219 77.16430664 C-203.71536911 77.90801514 -204.45391632 78.65172363 -205.21484375 79.41796875 C-205.96809433 80.17263428 -206.72134491 80.9272998 -207.49742126 81.70483398 C-209.91468791 84.12772076 -212.32846395 86.55405274 -214.7421875 88.98046875 C-216.37542315 90.61871681 -218.00888369 92.2567407 -219.64257812 93.89453125 C-223.65756616 97.92057498 -227.6694909 101.94965311 -231.6796875 105.98046875 C-227.37651138 111.12295882 -222.8662492 115.93256945 -218.11376953 120.65991211 C-217.38137558 121.39245209 -216.64898163 122.12499207 -215.89439392 122.87973022 C-213.49446093 125.2789715 -211.09101495 127.67466004 -208.6875 130.0703125 C-207.0143382 131.74160748 -205.34139835 133.41312467 -203.66867065 135.08485413 C-199.28150811 139.46821226 -194.89134993 143.848558 -190.50054932 148.22827148 C-186.014169 152.70439293 -181.53064458 157.18337301 -177.046875 161.66210938 C-168.26059651 170.43768718 -159.4711489 179.21008346 -150.6796875 187.98046875 C-152.03924007 191.01911823 -153.56658878 193.11534812 -155.91934204 195.46063232 C-156.58680954 196.13084915 -157.25427704 196.80106598 -157.94197083 197.49159241 C-159.03924751 198.57808327 -159.03924751 198.57808327 -160.15869141 199.68652344 C-160.92951553 200.45763962 -161.70033966 201.2287558 -162.49452209 202.02323914 C-165.0437195 204.57104313 -167.59992822 207.11168966 -170.15625 209.65234375 C-171.92502646 211.41739013 -173.69336189 213.18287857 -175.46127319 214.9487915 C-179.64015578 219.12081785 -183.82346844 223.28836723 -188.00895059 227.45376992 C-193.24228385 232.66254132 -198.46870493 237.87823141 -203.6953125 243.09375 C-213.01790017 252.39488688 -222.34661696 261.68985137 -231.6796875 270.98046875 C-227.19885266 276.29445079 -227.19885266 276.29445079 -222.42822266 281.34545898 C-221.86809479 281.90551132 -221.30796692 282.46556366 -220.73086548 283.04258728 C-220.14936737 283.6189241 -219.56786926 284.19526093 -218.96875 284.7890625 C-218.35575043 285.40064713 -217.74275085 286.01223175 -217.11117554 286.64234924 C-215.17804186 288.56994434 -213.24143763 290.49400803 -211.3046875 292.41796875 C-209.98284051 293.73479279 -208.66122378 295.05184801 -207.33984375 296.36914062 C-204.12244451 299.57559248 -200.90193069 302.77888504 -197.6796875 305.98046875 C-191.3458749 300.75403892 -185.57705902 295.01262908 -179.78735352 289.20166016 C-178.70280595 288.11683009 -177.61803728 287.03222103 -176.5330658 285.94781494 C-173.60571113 283.02074576 -170.68143778 280.09061599 -167.75772977 277.15990496 C-164.6952624 274.09116253 -161.62994001 271.02527458 -158.56492615 267.95907593 C-152.76909705 262.16014572 -146.97582058 256.35867237 -141.18346876 250.55626905 C-134.58565812 243.9472593 -127.9849887 237.34110785 -121.38408387 230.73518872 C-107.81278017 217.15344827 -94.24505036 203.56814275 -80.6796875 189.98046875 C-82.22350879 186.31051283 -84.438813 183.9722822 -87.24134827 181.17156982 C-87.94114065 180.46815582 -87.94114065 180.46815582 -88.65507025 179.75053144 C-90.21723309 178.1827394 -91.78643283 176.62218905 -93.35571289 175.06152344 C-94.47794633 173.93821696 -95.59974664 172.81447764 -96.72114563 171.69033813 C-99.76601542 168.64062176 -102.8170972 165.59719062 -105.86946034 162.55497646 C-109.05935808 159.37385766 -112.24398729 156.18747263 -115.42930603 153.00177002 C-120.77669668 147.65531578 -126.12794629 142.3127489 -131.48168945 136.97265625 C-137.68008815 130.79000289 -143.87322469 124.60211842 -150.06338888 118.41122127 C-156.01113771 112.4628632 -161.96173338 106.51736214 -167.91393852 100.57346344 C-170.45099775 98.03994361 -172.98719788 95.50556826 -175.52275276 92.97054291 C-178.50394772 89.99034874 -181.48766656 87.01270477 -184.47340202 84.03705978 C-185.57200544 82.9413893 -186.66975183 81.84485876 -187.76660156 80.74743271 C-189.25710703 79.25644028 -190.75062593 77.76853617 -192.24501038 76.28143311 C-193.08216615 75.44595318 -193.91932192 74.61047325 -194.78184605 73.74967575 C-196.9693877 71.47943952 -196.9693877 71.47943952 -199.0907135 73.27124023 Z " fill="#FFFEEB" transform="translate(414.6796875,61.01953125)"/>
</svg>
