<?xml version="1.0" encoding="UTF-8"?>
<svg version="1.1" xmlns="http://www.w3.org/2000/svg" width="500" height="500">
<path d="M0 0 C1.24141028 -0.00445784 2.48282057 -0.00891569 3.76184934 -0.01350862 C5.13666118 -0.01341933 6.51147302 -0.01322949 7.88628483 -0.01294994 C9.34905233 -0.01625053 10.81181892 -0.01997651 12.27458435 -0.02409142 C16.29522068 -0.03409764 20.31584207 -0.037826 24.33648908 -0.04048073 C28.6727759 -0.04438794 33.00905095 -0.05396606 37.34533024 -0.0626936 C47.81874615 -0.08244739 58.29216302 -0.09252335 68.7655929 -0.10142139 C73.70043745 -0.10580651 78.63528093 -0.11117278 83.57012463 -0.11641026 C99.97984024 -0.1334223 116.38955518 -0.14791542 132.79927826 -0.155159 C137.05680117 -0.15706883 141.31432407 -0.15898917 145.57184696 -0.16094494 C147.15908547 -0.16167055 147.15908547 -0.16167055 148.7783894 -0.16241082 C165.91140872 -0.1707072 183.04435813 -0.19603761 200.17734694 -0.22852562 C217.77638736 -0.26162462 235.37539229 -0.27961037 252.974464 -0.28280324 C262.85200019 -0.28496582 272.72943446 -0.29367749 282.60694027 -0.31926441 C291.02101932 -0.34101033 299.4349717 -0.34900275 307.84907567 -0.33929763 C312.13843327 -0.33476404 316.42752973 -0.33658398 320.71685123 -0.35605907 C324.65214852 -0.37377159 328.58699574 -0.37262823 332.52229834 -0.35716178 C333.93760275 -0.35479788 335.35293899 -0.35904529 336.76819497 -0.37099043 C354.61345004 -0.51214522 368.55554708 4.51334063 381.54377079 16.72797108 C391.09828487 26.63635605 396.97514171 39.40740494 396.99830437 53.25731373 C397.00276221 54.49585732 397.00722005 55.7344009 397.01181298 57.01047611 C397.0117237 58.38204671 397.01153386 59.7536173 397.01125431 61.12518787 C397.0145549 62.58454327 397.01828088 64.04389775 397.02239579 65.50325108 C397.03240183 69.51441644 397.03613034 73.52556685 397.0387851 77.53674293 C397.04269232 81.86278559 397.05227041 86.18881645 397.06099796 90.51485157 C397.08075105 100.96304872 397.09082734 111.41124682 397.09972575 121.85945797 C397.10411074 126.78197893 397.10947702 131.70449882 397.11471462 136.62701893 C397.13172611 152.99470261 397.14621958 169.36238563 397.15346336 185.73007679 C397.1553732 189.97660797 397.15729354 194.22313914 397.15924931 198.4696703 C397.15973305 199.525101 397.16021679 200.5805317 397.16071519 201.66794515 C397.16901288 218.75960768 397.19434577 235.85120016 397.22682998 252.94283211 C397.25992226 270.49779723 397.27791411 288.05272677 397.2811076 305.60772324 C397.28327074 315.46119436 397.29199061 325.31456335 397.31756878 335.16800404 C397.33930543 343.56088503 397.34731163 351.95363909 397.337602 360.34654504 C397.33306582 364.62565262 397.33490355 368.90449844 397.35436344 373.18356991 C397.37205717 377.10832965 397.37094761 381.03263787 397.35546615 384.95740283 C397.35309944 386.36999768 397.35736457 387.78262431 397.3692948 389.19517076 C397.51158673 407.1699037 391.83255669 420.58754568 379.56720829 433.58734608 C368.61769486 443.90393965 355.44329067 448.30937703 340.66755009 448.24774647 C339.73520196 448.247867 338.80285383 448.24798754 337.84225273 448.24811172 C334.832578 448.24736699 331.82296565 448.23975877 328.81330204 448.23187733 C326.95185215 448.23040655 325.09040184 448.22938667 323.22895145 448.22882557 C316.33648908 448.22358846 309.44403557 448.20962722 302.55158329 448.19672108 C287.14470829 448.17609608 271.73783329 448.15547108 255.86408329 448.13422108 C255.86408329 396.98422108 255.86408329 345.83422108 255.86408329 293.13422108 C269.72408329 293.13422108 283.58408329 293.13422108 297.86408329 293.13422108 C298.85408329 290.16422108 299.84408329 287.19422108 300.86408329 284.13422108 C302.009646 281.20606237 303.17301212 278.29607288 304.37580204 275.39203358 C304.87367977 274.18025944 304.87367977 274.18025944 305.38161564 272.94400501 C306.43548832 270.38125429 307.49354387 267.82025389 308.55158329 265.25922108 C309.24129244 263.58224302 309.9307472 261.90516031 310.61994267 260.22797108 C311.30916154 258.55339548 311.99860815 256.87891359 312.68830204 255.20453358 C313.13722057 254.11436436 313.13722057 254.11436436 313.59520817 253.00217152 C317.30427856 244.02601996 321.09492787 235.0859652 324.86408329 226.13422108 C290.70908329 225.63922108 290.70908329 225.63922108 255.86408329 225.13422108 C255.77127079 209.97484608 255.77127079 209.97484608 255.67658329 194.50922108 C255.64927128 191.32700916 255.62195927 188.14479725 255.59381962 184.86615467 C255.58505614 182.3383265 255.57741188 179.81049409 255.57111454 177.28265858 C255.54809269 175.32066517 255.54809269 175.32066517 255.52460575 173.31903553 C255.5242432 172.0609911 255.52388065 170.80294666 255.52350712 169.50677967 C255.51351437 167.87463017 255.51351437 167.87463017 255.50331974 166.20950794 C255.93022796 162.57037856 256.89970147 160.22054486 258.86408329 157.13422108 C264.57427276 153.40199586 272.02038234 153.73237031 278.58673954 153.84125233 C279.46229496 153.84427357 280.33785038 153.84729481 281.23993778 153.8504076 C284.46894184 153.86594579 287.69777609 153.90782808 290.92658329 153.94672108 C298.16595829 154.00859608 305.40533329 154.07047108 312.86408329 154.13422108 C312.86408329 131.69422108 312.86408329 109.25422108 312.86408329 86.13422108 C296.56002079 86.25797108 296.56002079 86.25797108 279.92658329 86.38422108 C276.53127323 86.40001209 273.13596317 86.41580311 269.63776493 86.43207264 C266.89157321 86.4614868 264.14539617 86.4923204 261.39923954 86.52484608 C260.71228504 86.5251482 260.02533054 86.52545033 259.31755924 86.5257616 C244.40827323 86.54349441 230.1407543 88.99900417 216.86408329 96.13422108 C215.87923954 96.64855701 214.89439579 97.16289295 213.87970829 97.69281483 C206.65346522 101.66358037 200.68781421 106.31049016 194.86408329 112.13422108 C194.23888798 112.75941639 193.61369267 113.3846117 192.96955204 114.02875233 C177.67608692 130.42693728 172.61896871 150.34041985 172.45002079 172.10687733 C172.43127998 173.64102149 172.41170447 175.17515565 172.39133549 176.70927906 C172.34031551 180.71878601 172.30052993 184.72832626 172.26319218 188.73798084 C172.21587078 193.56404454 172.15440383 198.38994689 172.0953455 203.21587849 C172.00750123 210.52192646 171.93747434 217.8279493 171.86408329 225.13422108 C153.38408329 225.13422108 134.90408329 225.13422108 115.86408329 225.13422108 C115.86408329 247.57422108 115.86408329 270.01422108 115.86408329 293.13422108 C134.34408329 293.13422108 152.82408329 293.13422108 171.86408329 293.13422108 C171.86408329 344.28422108 171.86408329 395.43422108 171.86408329 448.13422108 C127.70987025 448.25513018 127.70987025 448.25513018 109.17658329 448.28070545 C96.39073919 448.29849137 83.60495449 448.31937606 70.81916142 448.36053944 C61.50644422 448.390507 52.19377532 448.40981153 42.88101125 448.41648656 C37.95318607 448.42038637 33.02549901 448.42950694 28.09771824 448.45141125 C23.45203858 448.47189276 18.80655293 448.47803146 14.16083241 448.47354412 C12.46300163 448.47436413 10.76516383 448.4802599 9.06737232 448.4918375 C-8.97333763 448.60874488 -23.35914208 445.37148378 -36.78435421 432.60687733 C-46.29536777 422.60609397 -53.2467066 410.17380461 -53.27013779 396.11855888 C-53.27459563 394.87852295 -53.27905347 393.63848702 -53.2836464 392.36087424 C-53.28355711 390.98243112 -53.28336726 389.60398802 -53.28308773 388.22554493 C-53.28638734 386.76292779 -53.29011312 385.30031156 -53.29422921 383.83769649 C-53.30424659 379.81287021 -53.3079656 375.78805884 -53.31061852 371.76322186 C-53.31452244 367.42420991 -53.32410085 363.08520975 -53.33283138 358.74620533 C-53.35259515 348.26347822 -53.36266271 337.78075015 -53.37155917 327.29800907 C-53.37594294 322.36004489 -53.38130959 317.42208179 -53.38654804 312.48411846 C-53.4035616 296.06586301 -53.41805476 279.64760823 -53.42529678 263.22934532 C-53.42720665 258.96855194 -53.42912698 254.70775857 -53.43108273 250.44696522 C-53.43156647 249.3879784 -53.43205021 248.32899158 -53.4325486 247.23791426 C-53.44084509 230.09122277 -53.46617499 212.94460114 -53.4986634 195.79794014 C-53.5317557 178.18876609 -53.54974758 160.57962751 -53.55294102 142.97042221 C-53.5551043 133.08563719 -53.56382609 123.20095398 -53.5894022 113.3161993 C-53.61113899 104.89584582 -53.61914503 96.47561887 -53.60943542 88.05524052 C-53.6048991 83.76196335 -53.60673773 79.46894708 -53.62619686 75.17570591 C-53.64388984 71.23795379 -53.64278161 67.30065171 -53.62729957 63.36289441 C-53.62493273 61.94555909 -53.62919868 60.52819209 -53.64112822 59.110905 C-53.7696534 42.819841 -49.24031447 28.32610225 -37.88591671 16.32172108 C-27.3904131 6.50219906 -14.52107823 0.02422858 0 0 Z " fill="#FFFEEB" transform="translate(78.1359167098999,25.865778923034668)"/>
</svg>
