<?xml version="1.0" encoding="UTF-8"?>
<svg version="1.1" xmlns="http://www.w3.org/2000/svg" width="500" height="500">
<path d="M0 0 C3.24810409 0.00008079 6.49606572 -0.00680528 9.74414062 -0.02050781 C27.0073195 -0.09205111 44.21517545 0.05965155 61.45239258 1.07983398 C62.1313389 1.11931467 62.81028522 1.15879536 63.50980568 1.19947243 C98.16264902 3.26894648 134.99776381 7.78390382 166.08911133 24.18530273 C167.25442383 24.77827148 168.41973633 25.37124023 169.62036133 25.98217773 C197.93675103 40.87834799 215.49501018 67.86700747 224.95068359 97.71923828 C235.48489873 132.88829012 237.76293313 169.97970311 238.65161133 206.49780273 C238.67212555 207.3336792 238.69263977 208.16955566 238.71377563 209.03076172 C239.91521622 259.13821407 240.15006639 310.2099471 228.08911133 359.18530273 C227.89736328 359.96744141 227.70561523 360.74958008 227.50805664 361.55541992 C219.91926117 391.61018477 203.10318183 421.68785403 176.08911133 438.18530273 C174.55577148 439.15016602 174.55577148 439.15016602 172.99145508 440.13452148 C100.71177981 483.70148993 -20.99506365 474.73498992 -119.30053711 457.47851562 C-151.706387 449.16253367 -182.39377352 433.72676737 -200.1574707 404.10668945 C-217.42108953 374.1259524 -223.47043914 340.64655212 -226.59838867 306.56030273 C-226.71778809 305.26447266 -226.8371875 303.96864258 -226.96020508 302.63354492 C-227.31675229 298.4860391 -227.63207243 294.3386598 -227.91088867 290.18530273 C-227.96034637 289.4516449 -228.00980408 288.71798706 -228.0607605 287.96209717 C-229.20723316 269.95849509 -229.09832206 251.91570637 -229.09619141 233.8840332 C-229.09611028 230.3455696 -229.10304645 226.80723585 -229.11669922 223.26879883 C-229.19682193 202.14997048 -228.95106616 181.22793966 -226.91088867 160.18530273 C-226.8328299 159.37484497 -226.75477112 158.56438721 -226.67434692 157.72937012 C-226.23005477 153.26533543 -225.69526309 148.81940848 -225.09838867 144.37280273 C-224.92734619 143.08712402 -224.75630371 141.80144531 -224.58007812 140.47680664 C-219.04166764 100.49788123 -206.85292488 60.71272792 -174.08081055 34.73461914 C-170.20084762 31.89400941 -166.12340036 29.49392662 -161.91088867 27.18530273 C-161.3246875 26.85127441 -160.73848633 26.51724609 -160.13452148 26.1730957 C-133.80182614 11.28723581 -103.24892762 6.02338441 -73.53588867 2.87280273 C-72.77443542 2.79130981 -72.01298218 2.70981689 -71.22845459 2.62585449 C-47.53407305 0.14411674 -23.79754927 -0.00299247 0 0 Z M85.33911133 107.31030273 C82.95190323 112.80088136 82.29449363 118.66372361 84.08911133 124.43530273 C86.41003225 129.69463729 90.62992876 132.79807154 95.52661133 135.56030273 C102.07196187 137.1567297 107.26248706 136.57533867 113.08911133 133.18530273 C117.85635487 128.61788377 121.17300226 124.79591451 121.40161133 117.99780273 C121.31807928 112.28977961 119.5312859 107.88815886 115.69848633 103.64624023 C111.59533377 99.95340293 107.56325591 98.44850961 102.15161133 97.87280273 C95.20973043 98.58115793 89.72184922 101.98840672 85.33911133 107.31030273 Z M-67.91088867 169.18530273 C-80.08232997 183.16985787 -87.32289648 199.08317266 -90.91088867 217.18530273 C-91.10295898 218.14436523 -91.2950293 219.10342773 -91.49291992 220.09155273 C-94.82213999 244.73400409 -88.38654633 270.91489605 -73.81713867 291.08374023 C-71.59871709 293.8723899 -69.29886976 296.54076169 -66.91088867 299.18530273 C-66.16194336 300.02834961 -65.41299805 300.87139648 -64.64135742 301.73999023 C-47.09001742 320.42649153 -22.47862117 330.07238432 2.85302734 331.23217773 C30.32444791 331.81340604 55.09536491 320.55395169 74.83911133 301.87280273 C91.72839931 284.21160945 101.75516638 260.19000426 102.33911133 235.81030273 C101.62503437 207.12121101 90.78900385 181.80130023 70.01879883 161.77905273 C49.76285664 143.84579192 24.53766161 136.00070786 -2.29077148 137.01489258 C-27.57857364 138.65958936 -50.76307578 150.66704678 -67.91088867 169.18530273 Z " fill="#FFFEEB" transform="translate(244.910888671875,15.814697265625)"/>
<path d="M0 0 C12.088352 10.31391501 20.47987766 23.97099281 22.2421875 39.9296875 C23.57784862 57.00706901 18.7520749 72.72461844 7.953125 85.875 C-2.20427355 97.66107234 -16.38354628 104.25857161 -31.7578125 105.9296875 C-42.95846453 106.64084001 -54.90800697 104.42148555 -64.7578125 98.9296875 C-65.63953125 98.44757813 -66.52125 97.96546875 -67.4296875 97.46875 C-81.83009807 88.99558024 -90.50559248 75.89186728 -94.7578125 59.9296875 C-97.72445 44.93827935 -95.55684796 28.79290244 -87.640625 15.5859375 C-81.09744097 6.35488949 -73.8005503 -0.71918206 -63.7578125 -6.0703125 C-62.99726563 -6.47894531 -62.23671875 -6.88757813 -61.453125 -7.30859375 C-41.58685112 -17.02963524 -17.25657647 -12.95465372 0 0 Z " fill="#FFFEEB" transform="translate(286.7578125,203.0703125)"/>
</svg>
